<?xml version="1.0" standalone="no"?><svg xmlns="http://www.w3.org/2000/svg" viewBox="0 0 1440 320"><path fill="#2ecc71" fill-opacity="1" d="M0,0L34.3,5.3C68.6,11,137,21,206,48C274.3,75,343,117,411,138.7C480,160,549,160,617,138.7C685.7,117,754,75,823,69.3C891.4,64,960,96,1029,144C1097.1,192,1166,256,1234,240C1302.9,224,1371,128,1406,80L1440,32L1440,320L1405.7,320C1371.4,320,1303,320,1234,320C1165.7,320,1097,320,1029,320C960,320,891,320,823,320C754.3,320,686,320,617,320C548.6,320,480,320,411,320C342.9,320,274,320,206,320C137.1,320,69,320,34,320L0,320Z"></path></svg>